<!DOCTYPE svg PUBLIC "-//W3C//DTD SVG 20010904//EN" "http://www.w3.org/TR/2001/REC-SVG-20010904/DTD/svg10.dtd">
<svg version="1.0" xmlns="http://www.w3.org/2000/svg" width="530px" height="316px" viewBox="0 0 5300 3160" preserveAspectRatio="xMidYMid meet">
<g id="layer101" fill="#171713" stroke="none">
 <path d="M0 1580 l0 -1580 2650 0 2650 0 0 1580 0 1580 -2650 0 -2650 0 0 -1580z"/>
 </g>
<g id="layer102" fill="#fddd00" stroke="none">
 <path d="M0 1580 l0 -1580 2650 0 2650 0 0 1580 0 1580 -2650 0 -2650 0 0 -1580z m2350 420 l0 -300 310 0 310 0 0 300 0 300 25 0 25 0 0 -300 0 -300 328 -2 327 -3 3 -22 3 -23 -328 -2 -328 -3 -3 -302 -2 -303 327 -2 328 -3 3 -22 3 -23 -328 -2 -328 -3 -3 -323 -2 -322 -25 0 -25 0 -2 322 -3 323 -305 0 -305 0 -3 -323 -2 -322 -25 0 -25 0 0 325 0 325 -330 0 c-181 0 -330 3 -330 8 1 30 20 32 336 34 l319 3 0 305 0 305 -328 3 -328 2 3 23 3 22 328 3 327 2 0 300 0 300 25 0 25 0 0 -300z m-428 143 l58 -57 60 59 60 59 33 -32 32 -33 -60 -54 -60 -53 59 -61 c54 -58 57 -63 44 -83 -32 -48 -44 -47 -108 17 l-60 59 -58 -57 c-32 -31 -61 -57 -64 -57 -10 0 -58 46 -58 56 0 5 26 35 58 67 l57 58 -60 54 -60 53 29 31 c17 17 32 31 35 31 3 0 31 -26 63 -57z m1423 -53 c5 0 35 26 67 57 l58 57 33 -32 32 -33 -58 -52 c-31 -29 -57 -56 -57 -62 0 -5 25 -35 56 -66 l56 -56 -25 -27 c-13 -14 -31 -26 -38 -26 -8 0 -39 25 -69 55 l-54 55 -56 -55 c-31 -30 -60 -55 -65 -55 -13 0 -55 42 -55 55 0 6 24 35 54 64 l55 54 -22 28 c-12 15 -25 28 -29 28 -11 1 -58 47 -58 57 0 4 12 21 27 36 l27 28 56 -55 c30 -30 60 -55 65 -55z m215 -600 c0 -36 -2 -40 -25 -40 -28 0 -27 9 -27 -158 0 -61 -4 -115 -9 -118 -5 -3 -62 -5 -126 -5 -91 0 -119 3 -131 15 -15 15 -25 61 -38 181 -7 61 -21 85 -48 85 -12 0 -16 10 -16 40 l0 40 210 0 210 0 0 -40z m-1625 -44 c17 -20 34 -36 39 -36 5 0 36 25 68 56 l60 57 31 -31 31 -32 -58 -59 c-53 -54 -57 -60 -44 -80 7 -11 16 -21 20 -21 10 0 78 -66 78 -76 0 -13 -43 -54 -57 -54 -7 0 -35 23 -63 50 -28 28 -56 50 -63 50 -7 0 -35 -22 -62 -50 -27 -27 -54 -50 -59 -50 -13 0 -56 41 -56 54 0 6 25 34 56 62 l58 51 -45 44 c-76 76 -76 76 -44 109 l28 29 26 -19 c14 -10 40 -35 56 -54z m-62 -605 c4 0 7 -43 7 -94 0 -52 2 -96 6 -99 3 -3 25 15 50 41 l44 46 44 -46 c25 -26 47 -41 49 -35 2 6 5 49 6 96 1 46 4 86 7 89 8 8 38 11 62 6 22 -5 22 -6 20 -178 l-3 -172 -37 -3 c-34 -3 -44 3 -91 47 -30 28 -57 51 -60 51 -4 0 -29 -23 -56 -51 -44 -46 -52 -50 -87 -47 l-39 3 -3 169 c-2 125 1 171 10 177 10 6 29 6 71 0z m859 -3 c77 -23 138 -126 123 -206 -8 -41 -48 -108 -72 -120 -46 -23 -112 -32 -162 -21 -92 20 -130 68 -133 173 -1 56 2 70 26 105 49 70 130 96 218 69z m515 3 c7 -1 49 -44 94 -96 45 -53 86 -92 90 -88 5 5 9 49 11 98 3 97 8 105 64 91 l24 -6 -2 -173 -3 -172 -24 -3 c-46 -7 -71 10 -146 98 -42 50 -81 90 -86 90 -5 0 -9 -43 -9 -95 l0 -95 -45 0 -45 0 0 174 c0 183 1 188 45 181 11 -2 25 -4 32 -4z m145 -378 c23 -21 23 -45 -1 -67 -26 -24 -62 -17 -80 16 -14 24 -14 28 3 47 23 25 53 27 78 4z"/>
 <path d="M2357 1643 c-4 -3 -7 -141 -7 -305 l0 -298 310 0 310 0 -2 303 -3 302 -301 3 c-165 1 -303 -1 -307 -5z m420 -149 c44 -35 83 -105 83 -148 0 -49 -41 -117 -90 -148 -40 -26 -52 -29 -111 -26 -58 3 -71 8 -105 37 -53 46 -65 71 -67 140 -2 70 25 118 88 157 34 21 50 24 102 22 51 -3 69 -9 100 -34z"/>
 <path d="M2613 1422 c-51 -40 -53 -116 -4 -145 105 -62 212 55 123 134 -37 34 -85 38 -119 11z"/>
 <path d="M3281 1433 c0 -32 25 -159 33 -171 9 -14 96 -16 97 -2 0 6 0 44 0 85 0 41 0 82 0 90 -1 12 -15 15 -66 15 -55 0 -65 -3 -64 -17z"/>
 <path d="M2618 745 c-34 -19 -54 -78 -39 -117 31 -82 153 -78 181 6 27 81 -66 154 -142 111z"/>
 </g>

</svg>